<svg fill="#FAB005" xmlns="http://www.w3.org/2000/svg"  viewBox="0 0 24 24" width="24px" height="24px"><path d="M18.914 6.201l-3.005-4.946C15.816 1.097 15.647 1 15.464 1H8.838C8.655 1 8.485 1.097 8.393 1.255L5.086 6.901c-.094.161-.094.36 0 .521l2.977 5.297c.199.34.691.34.89 0l2.978-5.464C12.024 7.097 12.193 7 12.376 7l6.092-.023C18.867 6.977 19.115 6.544 18.914 6.201zM8.467 22.974h6.626c.183 0 .352-.097.445-.255l3.377-5.664c.094-.161.094-.36 0-.521l-3.047-5.279c-.199-.34-.691-.34-.89 0l-2.978 5.464c-.092.158-.261.266-.444.266H5.533c-.398 0-.647.422-.446.765l2.935 4.969C8.115 22.877 8.284 22.974 8.467 22.974z"/></svg>